<svg width="60" height="60" viewBox="0 0 60 60" fill="none" xmlns="http://www.w3.org/2000/svg">
<g filter="url(#filter0_dii_559_3963)">
<rect x="10" width="40" height="40" rx="20" fill="url(#paint0_linear_559_3963)"/>
<path d="M38.3332 24.1V26.6C38.3341 26.8321 38.2866 27.0618 38.1936 27.2745C38.1006 27.4871 37.9643 27.678 37.7933 27.8349C37.6222 27.9918 37.4203 28.1112 37.2005 28.1856C36.9806 28.2599 36.7477 28.2876 36.5165 28.2667C33.9522 27.988 31.489 27.1118 29.3249 25.7083C27.3114 24.4289 25.6043 22.7218 24.3249 20.7083C22.9165 18.5343 22.0401 16.0592 21.7665 13.4833C21.7457 13.2529 21.7731 13.0206 21.8469 12.8013C21.9208 12.5821 22.0395 12.3806 22.1955 12.2097C22.3515 12.0388 22.5414 11.9023 22.753 11.8088C22.9647 11.7153 23.1935 11.6669 23.4249 11.6667H25.9249C26.3293 11.6627 26.7214 11.8059 27.028 12.0696C27.3346 12.3333 27.5349 12.6995 27.5915 13.1C27.697 13.9 27.8927 14.6856 28.1749 15.4417C28.287 15.7399 28.3112 16.0641 28.2448 16.3757C28.1783 16.6874 28.0239 16.9734 27.7999 17.2L26.7415 18.2583C27.9278 20.3446 29.6552 22.072 31.7415 23.2583L32.7999 22.2C33.0264 21.9759 33.3125 21.8215 33.6241 21.7551C33.9358 21.6886 34.2599 21.7129 34.5582 21.825C35.3143 22.1071 36.0998 22.3028 36.8999 22.4083C37.3047 22.4654 37.6744 22.6693 37.9386 22.9812C38.2029 23.2931 38.3433 23.6913 38.3332 24.1Z" stroke="white" stroke-width="2" stroke-linecap="round" stroke-linejoin="round"/>
</g>
<defs>
<filter id="filter0_dii_559_3963" x="0" y="0" width="60" height="60" filterUnits="userSpaceOnUse" color-interpolation-filters="sRGB">
<feFlood flood-opacity="0" result="BackgroundImageFix"/>
<feColorMatrix in="SourceAlpha" type="matrix" values="0 0 0 0 0 0 0 0 0 0 0 0 0 0 0 0 0 0 127 0" result="hardAlpha"/>
<feOffset dy="10"/>
<feGaussianBlur stdDeviation="5"/>
<feComposite in2="hardAlpha" operator="out"/>
<feColorMatrix type="matrix" values="0 0 0 0 0 0 0 0 0 0.12549 0 0 0 0 0.25098 0 0 0 0.1 0"/>
<feBlend mode="normal" in2="BackgroundImageFix" result="effect1_dropShadow_559_3963"/>
<feBlend mode="normal" in="SourceGraphic" in2="effect1_dropShadow_559_3963" result="shape"/>
<feColorMatrix in="SourceAlpha" type="matrix" values="0 0 0 0 0 0 0 0 0 0 0 0 0 0 0 0 0 0 127 0" result="hardAlpha"/>
<feOffset dy="-2"/>
<feComposite in2="hardAlpha" operator="arithmetic" k2="-1" k3="1"/>
<feColorMatrix type="matrix" values="0 0 0 0 0 0 0 0 0 0.12549 0 0 0 0 0.25098 0 0 0 0.1 0"/>
<feBlend mode="normal" in2="shape" result="effect2_innerShadow_559_3963"/>
<feColorMatrix in="SourceAlpha" type="matrix" values="0 0 0 0 0 0 0 0 0 0 0 0 0 0 0 0 0 0 127 0" result="hardAlpha"/>
<feOffset dy="2"/>
<feComposite in2="hardAlpha" operator="arithmetic" k2="-1" k3="1"/>
<feColorMatrix type="matrix" values="0 0 0 0 1 0 0 0 0 1 0 0 0 0 1 0 0 0 0.25 0"/>
<feBlend mode="normal" in2="effect2_innerShadow_559_3963" result="effect3_innerShadow_559_3963"/>
</filter>
<linearGradient id="paint0_linear_559_3963" x1="30" y1="0" x2="30" y2="40" gradientUnits="userSpaceOnUse">
<stop stop-color="#409FFF"/>
<stop offset="1" stop-color="#007FFF"/>
</linearGradient>
</defs>
</svg>
