<svg width="15" height="18" viewBox="0 0 15 18" fill="none" xmlns="http://www.w3.org/2000/svg">
<path d="M5.12533 13.75V12.75C4.57304 12.75 4.12533 13.1977 4.12533 13.75H5.12533ZM9.87533 13.75H10.8753C10.8753 13.1977 10.4276 12.75 9.87533 12.75V13.75ZM4.33366 3.24998C3.78137 3.24998 3.33366 3.69769 3.33366 4.24998C3.33366 4.80226 3.78137 5.24998 4.33366 5.24998V3.24998ZM4.34158 5.24998C4.89386 5.24998 5.34158 4.80226 5.34158 4.24998C5.34158 3.69769 4.89386 3.24998 4.34158 3.24998V5.24998ZM10.667 3.24998C10.1147 3.24998 9.66699 3.69769 9.66699 4.24998C9.66699 4.80226 10.1147 5.24998 10.667 5.24998V3.24998ZM10.6749 5.24998C11.2272 5.24998 11.6749 4.80226 11.6749 4.24998C11.6749 3.69769 11.2272 3.24998 10.6749 3.24998V5.24998ZM7.50033 3.24998C6.94804 3.24998 6.50033 3.69769 6.50033 4.24998C6.50033 4.80226 6.94804 5.24998 7.50033 5.24998V3.24998ZM7.50824 5.24998C8.06053 5.24998 8.50824 4.80226 8.50824 4.24998C8.50824 3.69769 8.06053 3.24998 7.50824 3.24998V5.24998ZM7.50033 6.41665C6.94804 6.41665 6.50033 6.86436 6.50033 7.41665C6.50033 7.96893 6.94804 8.41665 7.50033 8.41665V6.41665ZM7.50824 8.41665C8.06053 8.41665 8.50824 7.96893 8.50824 7.41665C8.50824 6.86436 8.06053 6.41665 7.50824 6.41665V8.41665ZM7.50033 9.58331C6.94804 9.58331 6.50033 10.031 6.50033 10.5833C6.50033 11.1356 6.94804 11.5833 7.50033 11.5833V9.58331ZM7.50824 11.5833C8.06053 11.5833 8.50824 11.1356 8.50824 10.5833C8.50824 10.031 8.06053 9.58331 7.50824 9.58331V11.5833ZM10.667 6.41665C10.1147 6.41665 9.66699 6.86436 9.66699 7.41665C9.66699 7.96893 10.1147 8.41665 10.667 8.41665V6.41665ZM10.6749 8.41665C11.2272 8.41665 11.6749 7.96893 11.6749 7.41665C11.6749 6.86436 11.2272 6.41665 10.6749 6.41665V8.41665ZM10.667 9.58331C10.1147 9.58331 9.66699 10.031 9.66699 10.5833C9.66699 11.1356 10.1147 11.5833 10.667 11.5833V9.58331ZM10.6749 11.5833C11.2272 11.5833 11.6749 11.1356 11.6749 10.5833C11.6749 10.031 11.2272 9.58331 10.6749 9.58331V11.5833ZM4.33366 6.41665C3.78137 6.41665 3.33366 6.86436 3.33366 7.41665C3.33366 7.96893 3.78137 8.41665 4.33366 8.41665V6.41665ZM4.34158 8.41665C4.89386 8.41665 5.34158 7.96893 5.34158 7.41665C5.34158 6.86436 4.89386 6.41665 4.34158 6.41665V8.41665ZM4.33366 9.58331C3.78137 9.58331 3.33366 10.031 3.33366 10.5833C3.33366 11.1356 3.78137 11.5833 4.33366 11.5833V9.58331ZM4.34158 11.5833C4.89386 11.5833 5.34158 11.1356 5.34158 10.5833C5.34158 10.031 4.89386 9.58331 4.34158 9.58331V11.5833ZM2.75033 2.08331H12.2503V0.083313H2.75033V2.08331ZM12.2503 2.08331C12.5725 2.08331 12.8337 2.34448 12.8337 2.66665H14.8337C14.8337 1.23991 13.6771 0.083313 12.2503 0.083313V2.08331ZM12.8337 2.66665V15.3333H14.8337V2.66665H12.8337ZM12.8337 15.3333C12.8337 15.6555 12.5725 15.9166 12.2503 15.9166V17.9166C13.6771 17.9166 14.8337 16.7601 14.8337 15.3333H12.8337ZM12.2503 15.9166H2.75033V17.9166H12.2503V15.9166ZM2.75033 15.9166C2.42816 15.9166 2.16699 15.6555 2.16699 15.3333H0.166992C0.166992 16.7601 1.32359 17.9166 2.75033 17.9166V15.9166ZM2.16699 15.3333V2.66665H0.166992V15.3333H2.16699ZM2.16699 2.66665C2.16699 2.34448 2.42816 2.08331 2.75033 2.08331V0.083313C1.32359 0.083313 0.166992 1.23991 0.166992 2.66665H2.16699ZM6.12533 16.9166V13.75H4.12533V16.9166H6.12533ZM5.12533 14.75H9.87533V12.75H5.12533V14.75ZM8.87533 13.75V16.9166H10.8753V13.75H8.87533ZM4.33366 5.24998H4.34158V3.24998H4.33366V5.24998ZM10.667 5.24998H10.6749V3.24998H10.667V5.24998ZM7.50033 5.24998H7.50824V3.24998H7.50033V5.24998ZM7.50033 8.41665H7.50824V6.41665H7.50033V8.41665ZM7.50033 11.5833H7.50824V9.58331H7.50033V11.5833ZM10.667 8.41665H10.6749V6.41665H10.667V8.41665ZM10.667 11.5833H10.6749V9.58331H10.667V11.5833ZM4.33366 8.41665H4.34158V6.41665H4.33366V8.41665ZM4.33366 11.5833H4.34158V9.58331H4.33366V11.5833Z" fill="white"/>
</svg>
